# xmcd
#
# Track frame offsets: 
#        150
#        11100
#        45712
#        64950
#        89287
#        116025
#        166012
#        189675
#        219187
#        242400
#        266250
#        287025
#        307388
#        323585
#
# Disc length: 4550 seconds
#
# Revision: 1
# Processed by: cddbd v1.5.2PL0 Copyright (c) Steve Scherf et al.
# Submitted via: ExactAudioCopy v0.99pb4
#
DISCID=c311c40e
DTITLE=Rod Piazza - Modern Master: The Best of Rod Piazza Disc 2
DYEAR=2003
DGENRE=Blues
TTITLE0=Little Bitty Pretty One/Rockin' Robin
TTITLE1=Tribute to George Smith
TTITLE2=How Come You Women Look So Good
TTITLE3=So Glad to Have the Blues
TTITLE4=Murder in the First Degree
TTITLE5=Southern Lady
TTITLE6=Chicken Shack Boogie
TTITLE7=Tough and Tender
TTITLE8=Blue Midnight
TTITLE9=Goodbye My Lover
TTITLE10=First Love
TTITLE11=Who Knows What's Goin' On
TTITLE12=Lovin' Daddy Blues
TTITLE13=Devil's Foot
EXTD=YEAR: 2003 ID3G: 0
EXTT0=
EXTT1=
EXTT2=
EXTT3=
EXTT4=
EXTT5=
EXTT6=
EXTT7=
EXTT8=
EXTT9=
EXTT10=
EXTT11=
EXTT12=
EXTT13=
PLAYORDER=
